HIERARCHY
ROOT Hips
{
	OFFSET -0.679128 -1.117075 -1.155059
	CHANNELS 6 Xposition Yposition Zposition Zrotation Yrotation Xrotation
	JOINT LHipJoint
	{
		OFFSET -1.151993 -1.470956 -1.947763
		CHANNELS 3 Zrotation Yrotation Xrotation
		JOINT LeftUpLeg
		{
			OFFSET -2.246247 -2.439834 -1.501016
			CHANNELS 3 Zrotation Yrotation Xrotation
			JOINT LeftLeg
			{
				OFFSET -2.321279 -2.107539 -1.779419
				CHANNELS 3 Zrotation Yrotation Xrotation
				JOINT LeftFoot
				{
					OFFSET -1.736476 -3.118479 -2.266053
					CHANNELS 3 Zrotation Yrotation Xrotation
					JOINT LeftToeBase
					{
						OFFSET -3.369286 -3.917937 -3.059995
						CHANNELS 3 Zrotation Yrotation Xrotation
						End Site
						{
							OFFSET 0.000000 0.000000 0.000000
						}
					}
				}
			}
		}
	}
	JOINT RHipJoint
	{
		OFFSET -2.881295 -2.619075 -2.929279
		CHANNELS 3 Zrotation Yrotation Xrotation
		JOINT RightUpLeg
		{
			OFFSET -2.394511 -3.001169 -2.139899
			CHANNELS 3 Zrotation Yrotation Xrotation
			JOINT RightLeg
			{
				OFFSET -2.086457 -1.170413 -1.819507
				CHANNELS 3 Zrotation Yrotation Xrotation
				JOINT RightFoot
				{
					OFFSET -1.538998 0.249046 -0.805466
					CHANNELS 3 Zrotation Yrotation Xrotation
					JOINT RightToeBase
					{
						OFFSET -1.018114 -1.310579 -1.195058
						CHANNELS 3 Zrotation Yrotation Xrotation
						End Site
						{
							OFFSET 0.000000 0.000000 0.000000
						}
					}
				}
			}
		}
	}
	JOINT LowerBack
	{
		OFFSET -1.964090 -2.483591 -1.068562
		CHANNELS 3 Zrotation Yrotation Xrotation
		JOINT Spine
		{
			OFFSET -0.965073 -1.123407 -0.832609
			CHANNELS 3 Zrotation Yrotation Xrotation
			JOINT Spine1
			{
				OFFSET -1.153486 -0.959739 -0.552670
				CHANNELS 3 Zrotation Yrotation Xrotation
				JOINT Neck
				{
					OFFSET 0.474935 0.177344 -0.170076
					CHANNELS 3 Zrotation Yrotation Xrotation
					JOINT Neck1
					{
						OFFSET 0.191708 -0.010877 0.146977
						CHANNELS 3 Zrotation Yrotation Xrotation
						JOINT Head
						{
							OFFSET 0.055150 0.586336 0.420119
							CHANNELS 3 Zrotation Yrotation Xrotation
							End Site
							{
								OFFSET 0.000000 0.000000 0.000000
							}
						}
					}
				}
				JOINT LeftShoulder
				{
					OFFSET -0.424293 0.044321 -1.377251
					CHANNELS 3 Zrotation Yrotation Xrotation
					JOINT LeftArm
					{
						OFFSET -1.635344 -1.975858 -2.668591
						CHANNELS 3 Zrotation Yrotation Xrotation
						JOINT LeftForeArm
						{
							OFFSET -2.793189 -3.158033 -1.762989
							CHANNELS 3 Zrotation Yrotation Xrotation
							JOINT LeftHand
							{
								OFFSET -2.147196 -1.489228 -0.885141
								CHANNELS 3 Zrotation Yrotation Xrotation
								JOINT LeftFingerBase
								{
									OFFSET -1.863378 -1.343408 -0.994368
									CHANNELS 3 Zrotation Yrotation Xrotation
									JOINT LeftHandIndex1
									{
										OFFSET -0.921540 -1.496713 -1.722605
										CHANNELS 3 Zrotation Yrotation Xrotation
										End Site
										{
											OFFSET 0.000000 0.000000 0.000000
										}
									}
								}
								JOINT LThumb
								{
									OFFSET -1.268709 -1.289675 -1.291708
									CHANNELS 3 Zrotation Yrotation Xrotation
									End Site
									{
										OFFSET 0.000000 0.000000 0.000000
									}
								}
							}
						}
					}
				}
				JOINT RightShoulder
				{
					OFFSET -1.307445 -1.686932 -1.089530
					CHANNELS 3 Zrotation Yrotation Xrotation
					JOINT RightArm
					{
						OFFSET -0.946716 -1.180865 -0.860594
						CHANNELS 3 Zrotation Yrotation Xrotation
						JOINT RightForeArm
						{
							OFFSET -1.392848 -1.197510 -2.042344
							CHANNELS 3 Zrotation Yrotation Xrotation
							JOINT RightHand
							{
								OFFSET -1.115727 -0.696215 -0.438353
								CHANNELS 3 Zrotation Yrotation Xrotation
								JOINT RightFingerBase
								{
									OFFSET -1.091344 -0.790229 -0.885477
									CHANNELS 3 Zrotation Yrotation Xrotation
									JOINT RightHandIndex1
									{
										OFFSET -0.858848 -0.771555 -0.537954
										CHANNELS 3 Zrotation Yrotation Xrotation
										End Site
										{
											OFFSET 0.000000 0.000000 0.000000
										}
									}
								}
								JOINT RThumb
								{
									OFFSET -0.888627 -1.529005 -1.619883
									CHANNELS 3 Zrotation Yrotation Xrotation
									End Site
									{
										OFFSET -2.111941 -2.174358 -2.094211
									}
								}
							}
						}
					}
				}
			}
		}
	}
}
MOTION
Frames: 12
Frame Time: 0.008333
2.495981 17.681551 -4.466227 -2.515212 -5.251805 0.769595 -6.674665 -2.171110 -3.003086 -27.779274 -13.247222 -25.057089 -1.571667 4.283417 17.706825 -3.667439 -12.477005 -3.783101 -0.647070 -3.963048 -12.340778 -3.116626 -2.739426 -0.562511 17.203920 8.615505 -21.857605 -3.688512 -8.524196 38.429886 1.320176 1.171799 7.903030 0.089234 3.130466 8.711306 3.457906 3.326034 6.155234 4.135512 4.749858 -0.101290 4.658404 2.185230 0.215255 -2.783573 -1.630614 -9.780802 5.925226 2.543866 19.173695 1.743751 -0.111328 7.133540 -1.663075 -0.097622 -1.089470 -87.100945 -3.264090 21.800611 9.627911 -23.395430 -0.657027 -0.785549 -1.095936 -7.925223 12.695356 -14.803940 -11.737837 -7.125000 0.000000 0.000000 -18.532148 22.849167 3.490987 3.846335 1.922270 -0.208350 80.556602 -1.816470 4.306660 -12.676654 29.206474 0.998176 1.147002 -0.009835 2.920973 -16.367300 -5.169462 -15.074750 7.125000 0.000000 0.000000 -42.108166 -56.482071 -43.748295
2.041943 17.442381 -14.433286 -3.334386 -9.066866 -3.254259 -10.313516 -3.477693 -4.458649 -31.336643 -16.734253 -34.877583 -4.334941 0.917716 9.351858 -5.035405 -17.611492 -8.791201 -0.917478 -4.833164 -14.486491 -2.387836 -2.393424 0.316595 22.487103 9.230563 -20.076706 -3.711776 -8.543888 36.337021 0.175268 -4.383848 0.188472 -1.024643 -1.375131 -6.805151 -0.478968 0.882531 2.731824 3.232252 2.390191 -1.847783 3.518184 1.457976 -1.838703 -5.299205 -3.612703 -11.865849 5.477700 2.174167 17.524210 1.069196 -0.290076 7.878094 -0.968249 0.279921 -0.907697 -86.452820 0.129670 28.491602 12.782353 -21.983383 0.442622 -0.819248 -1.236650 -12.072865 8.762538 -15.734882 -14.475794 -7.125000 0.000000 0.000000 -23.489534 18.097179 -2.415405 1.774868 0.986999 -1.006896 75.028580 -9.590472 -13.586432 -26.537426 19.466099 -8.248696 0.123885 -1.152597 -16.879145 -60.559097 -30.033968 -57.711182 7.125000 0.000000 0.000000 -58.262691 -67.212440 -76.720108
1.342681 17.390812 -16.420048 -4.108693 -7.929790 1.794212 -4.937076 -1.953773 -2.313162 -28.031570 -15.080760 -31.581297 -2.372452 3.011149 13.092175 -3.384286 -12.372824 -3.625142 -0.885045 -4.064960 -8.130121 -1.314806 -2.077965 0.667501 22.796341 16.615551 -3.665744 0.867750 -5.114774 56.302841 6.748431 17.269583 30.580338 2.330715 9.647022 25.039570 6.700119 5.835658 10.198963 6.212142 8.007360 2.152666 6.254418 3.336055 3.816788 0.404254 1.700109 -7.855574 6.773697 4.129540 20.774254 2.879253 -0.326964 8.268981 0.350620 2.300262 0.122821 -79.447929 13.251702 44.369705 27.461050 -11.828678 10.370422 -0.097099 0.226989 7.592958 17.594030 -3.282285 -0.956323 -7.125000 0.000000 0.000000 -11.140545 35.931892 12.202885 5.217950 2.850535 -0.128961 80.371689 -1.270147 7.707300 -14.368624 26.189156 -3.736521 0.600923 -0.838486 -18.406351 -64.998596 -26.369144 -47.059322 7.125000 0.000000 0.000000 -30.359066 -50.274620 -26.547697
1.595190 17.572872 -7.203671 -2.801277 -5.418224 2.461011 -4.199778 -2.609854 -2.891998 -27.337662 -12.330030 -24.912424 -0.046578 5.233528 14.540700 -3.401670 -14.955025 -7.570851 -1.309762 -4.832897 -10.336265 -2.271797 -2.346213 1.163487 24.651388 19.495705 -2.458848 0.803151 -5.688027 56.938828 7.876564 22.179827 34.234406 3.038932 12.749783 31.615553 7.662555 7.227490 12.017304 7.215414 9.973803 3.413521 6.676558 4.200419 5.313009 1.222995 3.000294 -6.057886 7.525909 6.035581 22.529568 3.683228 0.502875 9.462371 2.244224 3.309371 -0.092551 -80.099838 11.458623 41.796661 29.604082 -10.354869 11.976051 -0.076923 -0.195206 2.415907 15.904045 -8.917704 0.770197 -7.125000 0.000000 0.000000 -7.261352 29.771502 2.690621 5.094610 3.525441 -0.049023 80.458778 0.757947 18.001799 -9.571152 29.458904 1.312663 1.080949 -0.363368 -8.833708 -37.573784 -16.237297 -28.346903 7.125000 0.000000 0.000000 -29.149158 -48.226505 -15.030314
1.643056 17.511202 -9.111376 -2.292472 -6.412165 2.045499 -3.395699 -2.703070 -2.938486 -26.629599 -14.942351 -25.063091 -0.704077 4.305622 15.965679 -2.217395 -14.883463 0.795871 -0.112988 -2.673250 0.183803 0.577018 -1.256139 3.347332 34.155266 27.750671 6.289091 2.082247 -3.154641 67.661041 9.021776 27.633121 45.354851 3.027791 13.458529 40.129253 7.904306 9.088482 15.178408 7.613924 9.957467 3.392176 6.499929 4.734380 6.807615 2.314860 4.815964 -6.002589 7.859741 6.004322 21.561729 4.628098 0.972060 9.322189 1.073202 1.687098 -0.323058 -80.700317 8.267279 33.795422 27.000605 -19.536804 0.508388 -0.758537 -1.204083 -10.984652 11.927117 -16.876547 -6.061773 -7.125000 0.000000 0.000000 -27.629244 19.473934 -11.644302 1.312477 -0.216706 -0.914217 75.028610 2.928582 25.085554 -6.143382 32.505772 4.294929 1.126969 0.521209 9.557014 4.157028 1.850522 -9.102620 7.125000 0.000000 0.000000 -12.283074 -42.320038 -9.245052
2.065186 17.598967 -3.218856 -0.467088 -2.787174 5.386002 -0.090556 -1.462202 -2.129176 -21.477398 -11.775747 -17.639421 1.411417 7.736438 28.983006 0.780304 -4.152997 6.985798 0.499023 0.268333 9.452611 1.049628 -0.985214 2.985421 31.868597 26.395546 9.438190 2.227544 -3.219001 70.816147 9.638789 29.334093 46.986717 3.440023 15.333049 47.479332 9.159833 10.065847 17.338799 8.130953 11.547246 3.636839 6.134434 5.076907 7.816468 2.716351 5.579112 -4.749207 7.789040 6.251246 21.201790 4.085518 1.104247 9.574252 0.392145 1.467151 -0.212675 -80.186821 10.525139 22.823812 20.592686 -23.956121 -5.898180 -1.019530 -1.861748 -11.418241 11.959900 -17.538691 -5.994156 -7.125000 0.000000 0.000000 -39.243977 11.647089 -20.246994 0.164737 -0.847337 -1.166580 74.609375 4.580451 33.330284 -4.209769 33.796593 6.875510 1.380759 1.054351 18.884605 18.115355 11.415565 4.816505 7.125000 0.000000 0.000000 -7.498881 -39.712315 8.213613
0.707665 17.471764 -12.876453 -3.811885 -7.464657 -0.196499 -6.070013 -3.703382 -6.317130 -35.313511 -25.619551 -35.501060 -4.126791 1.336771 9.312717 -3.724176 -19.423920 -0.607395 0.217061 -4.000436 1.846808 0.072075 -0.970128 3.960125 33.887825 27.280201 15.498348 3.612470 1.236341 70.671860 9.703214 35.238098 48.265724 3.189255 12.203127 44.723133 8.390071 9.667351 16.311045 7.044394 9.696014 2.665563 5.531275 5.244543 7.309651 4.674230 6.848952 -4.315351 7.781505 3.720640 17.122784 2.336063 0.135939 8.529553 -0.926922 0.250441 -0.735615 -89.246315 -3.965048 -1.756935 5.843629 -31.603455 -15.587355 -1.101072 -1.998638 -14.707197 11.694686 -19.785126 -5.622371 -7.125000 0.000000 0.000000 -36.526649 4.958321 -28.059175 -1.193163 -1.531577 -1.572108 74.810020 -0.892412 16.429407 -8.017929 30.600454 1.037380 0.740217 0.513176 13.658348 6.289885 8.298709 26.912634 7.125000 0.000000 0.000000 -45.790627 -57.401329 -26.693562
0.658191 17.545710 -9.690428 -3.707024 -6.901020 -0.158815 -5.386138 -3.731146 -5.151060 -29.919987 -24.079792 -34.542953 -5.990104 -1.088844 6.616558 -3.649528 -20.411245 -3.524491 -0.393343 -6.914057 -0.616070 1.079129 -0.261819 4.356413 38.895729 26.655521 16.015553 2.104714 -2.276119 60.415947 6.892859 30.111273 44.751354 2.451936 9.894460 40.437298 6.127612 8.406332 13.829735 6.207518 7.829456 1.997874 5.684505 5.218935 7.024451 5.039247 7.503125 -5.189934 7.896916 4.067918 17.860767 2.171092 -0.978808 6.509311 -3.639854 -1.725499 -0.804266 -89.969826 -6.114050 1.598991 5.200137 -36.215725 -23.487331 -1.699763 -2.587560 -23.459061 8.856930 -12.554243 -2.375601 -7.125000 0.000000 0.000000 -26.609449 22.456984 1.527592 2.602894 0.933393 -0.511607 83.343353 7.342787 27.798721 -0.390787 33.593864 3.062982 0.871178 0.626650 14.727409 0.472431 12.390450 31.488993 7.125000 0.000000 0.000000 -31.440807 -49.778854 -25.779736
1.154346 17.632940 -6.273294 -2.101511 -4.337533 1.348644 -6.025683 -4.549038 -4.715777 -26.200315 -18.630362 -28.838112 -4.260579 1.138875 18.934759 -1.308632 -12.220573 -4.565818 -0.580734 -6.553077 -5.312362 3.038144 0.651073 7.494850 40.906055 29.988312 23.490917 4.625586 1.232013 68.669174 8.870262 33.321186 49.223545 3.208183 14.254291 59.887405 9.926631 10.490463 16.307236 7.097925 8.697637 0.301514 3.564747 4.089756 5.620907 4.672515 6.829148 -8.187585 6.344589 1.483702 15.042657 1.463681 -0.914002 8.807913 -1.081168 2.454777 0.319729 -79.953339 16.506992 20.332771 16.468546 -18.873762 -5.229737 -0.432016 0.102076 1.568396 20.150152 -5.141715 4.006295 -7.125000 0.000000 0.000000 -0.996011 47.841614 36.625275 4.420163 1.346710 -0.556266 83.170830 1.289677 18.129000 -8.144525 27.213245 1.885866 1.098103 0.714872 14.549644 27.438169 37.289566 72.262985 7.125000 0.000000 0.000000 4.316686 -25.925367 24.777290
0.743690 17.577164 -10.483298 -3.113393 -6.230560 -0.168835 -7.246464 -4.684289 -4.752432 -27.637253 -18.833744 -32.986370 -4.922524 -0.999299 6.049412 -4.798791 -23.332626 -13.598751 -1.225939 -9.886522 -16.897404 -0.126607 -0.703352 5.918947 33.955650 24.466286 13.719225 3.303419 -1.023040 59.058350 6.576376 29.709059 49.974766 2.910621 13.402366 66.333908 11.300114 10.669733 15.469514 5.836651 6.201404 -1.946299 1.341990 2.941750 3.970650 4.525970 6.531454 -11.337050 4.654402 -2.140784 11.483215 -0.332705 -2.382932 7.153261 -1.818109 1.968263 0.439448 -78.665604 13.944860 19.894611 17.332499 -19.710241 -3.028536 -0.109071 0.611770 6.403805 21.469019 -8.503733 2.047584 -7.125000 0.000000 0.000000 20.794300 59.251320 48.516994 6.439256 2.251456 0.137224 88.005615 4.044400 28.277712 -2.184828 31.783073 5.531940 1.441647 0.928301 16.618574 24.061052 26.726116 47.551960 7.125000 0.000000 0.000000 -6.815743 -35.334545 6.451620
0.698944 17.481377 -10.814240 -1.343090 -2.043595 3.888386 -2.248623 -0.931644 -0.070828 -14.934496 -6.807203 -14.703794 0.790333 6.656693 28.368683 -2.032497 -16.306843 -9.951635 -0.753045 -4.965575 -7.679897 6.623721 2.476612 8.633300 49.722935 33.724327 20.689217 8.168824 5.321507 85.209534 12.191628 48.779335 78.761826 6.259534 23.961885 85.879021 16.187679 14.155331 23.079826 9.415449 13.019493 4.311816 6.114964 5.635085 9.740806 5.001056 7.020012 -7.486836 5.304591 1.562124 17.170717 3.065649 -0.128961 11.533463 2.736713 3.445658 1.274373 -72.853455 22.517841 46.065712 38.813374 -4.224070 12.445835 0.639498 2.245317 17.714003 26.102390 -2.727156 5.737217 -7.125000 0.000000 0.000000 18.635204 29.023178 1.235718 0.712358 -1.027881 -0.301921 86.772789 7.229120 38.787781 2.339852 40.104225 9.086480 1.671230 1.149909 20.559690 38.980743 24.121288 36.263622 7.125000 0.000000 0.000000 16.492809 -26.140633 -3.424089
0.688504 17.399008 -17.805548 -2.494837 -3.909934 1.504916 -4.935910 -1.984723 -2.049113 -20.109198 -6.820249 -19.148716 -0.887337 5.055983 24.540295 -2.319921 -11.494394 -0.962829 -0.286545 -3.665077 -3.524139 7.642210 2.832519 7.713930 46.074802 36.854702 26.412380 10.581258 9.680594 93.939514 14.409499 54.583412 78.486351 6.213433 25.641525 92.069489 17.832516 15.119736 24.388947 9.347441 12.044243 4.402003 5.854465 5.833775 10.312239 5.182591 6.083352 -6.847026 5.760741 3.033494 20.507605 4.293023 0.751101 11.991173 3.732655 2.708191 1.356824 -71.584305 24.804306 48.765152 34.029140 -8.118474 13.488125 0.880736 3.138878 25.206688 25.117935 -6.751408 0.283303 -7.125000 0.000000 0.000000 -0.287818 17.481621 -7.619421 -2.097046 -3.833385 -1.219746 80.859108 3.178479 25.370960 -9.786939 31.011808 0.636867 1.202113 0.585043 11.385635 15.949892 25.568344 48.009884 7.125000 0.000000 0.000000 12.266633 -22.802057 -1.450333
